<?xml version="1.0" encoding="UTF-8"?>
<svg xmlns="http://www.w3.org/2000/svg" viewBox="0 0 1180 920" width="100%" height="100%">
<defs>
  <marker id="cpog-blue" viewBox="0 0 10 10" refX="7" refY="5" markerWidth="6" markerHeight="6" orient="auto">
    <path d="M 0 1.5 L 8 5 L 0 8.5 z" fill="#0284C7"/>
  </marker>
  <marker id="cpog-slate" viewBox="0 0 10 10" refX="7" refY="5" markerWidth="6" markerHeight="6" orient="auto">
    <path d="M 0 1.5 L 8 5 L 0 8.5 z" fill="#475569"/>
  </marker>
  <marker id="cpog-green" viewBox="0 0 10 10" refX="7" refY="5" markerWidth="6" markerHeight="6" orient="auto">
    <path d="M 0 1.5 L 8 5 L 0 8.5 z" fill="#16A34A"/>
  </marker>
  <marker id="cpog-purple" viewBox="0 0 10 10" refX="7" refY="5" markerWidth="6" markerHeight="6" orient="auto">
    <path d="M 0 1.5 L 8 5 L 0 8.5 z" fill="#7C3AED"/>
  </marker>
  <filter id="card-shadow" x="-10%" y="-10%" width="125%" height="125%">
    <feGaussianBlur in="SourceAlpha" stdDeviation="3"/>
    <feOffset dx="0" dy="2" result="offsetblur"/>
    <feFlood flood-color="#0F172A" flood-opacity="0.08"/>
    <feComposite in2="offsetblur" operator="in"/>
    <feMerge>
      <feMergeNode/>
      <feMergeNode in="SourceGraphic"/>
    </feMerge>
  </filter>
</defs>
<rect width="1180" height="920" fill="#F8FAFC" rx="16"/>
<rect x="30" y="20" width="1120" height="75" rx="12" fill="#0F172A"/>
<text x="590" y="50" font-family="-apple-system, BlinkMacSystemFont, Segoe UI, Roboto, sans-serif" font-size="20" font-weight="700" fill="#F8FAFC" text-anchor="middle">Synthesized CPOG Reconfigurable Datapath H = (V, E, &#966;, &#961;)</text>
<text x="590" y="74" font-family="-apple-system, BlinkMacSystemFont, Segoe UI, Roboto, sans-serif" font-size="12" fill="#94A3B8" text-anchor="middle">Unified Reconfigurable Architecture: 4 Clause Scenarios Folded onto 1 Shared Execution Core</text>
<path d="M 200 195 C 200 230, 300 240, 300 275" fill="none" stroke="#0284C7" stroke-width="2.2" marker-end="url(#cpog-blue)"/>
<rect x="155.0" y="224" width="110" height="22" rx="6" fill="#FFFFFF" stroke="#0284C7" stroke-width="1.2"/>
<text x="210" y="239" font-family="Consolas, Monaco, monospace" font-size="10" font-weight="700" fill="#0284C7" text-anchor="middle">&#961; = ~s0</text>
<path d="M 400 195 C 400 230, 300 240, 300 275" fill="none" stroke="#0284C7" stroke-width="2.2" marker-end="url(#cpog-blue)"/>
<rect x="335.0" y="224" width="110" height="22" rx="6" fill="#FFFFFF" stroke="#0284C7" stroke-width="1.2"/>
<text x="390" y="239" font-family="Consolas, Monaco, monospace" font-size="10" font-weight="700" fill="#0284C7" text-anchor="middle">&#961; = s0</text>
<path d="M 780 195 C 780 230, 880 240, 880 275" fill="none" stroke="#0284C7" stroke-width="2.2" marker-end="url(#cpog-blue)"/>
<rect x="720.0" y="224" width="140" height="22" rx="6" fill="#FFFFFF" stroke="#0284C7" stroke-width="1.2"/>
<text x="790" y="239" font-family="Consolas, Monaco, monospace" font-size="10" font-weight="700" fill="#0284C7" text-anchor="middle">&#961; = s1 &#8853; s0</text>
<path d="M 980 195 C 980 230, 880 240, 880 275" fill="none" stroke="#0284C7" stroke-width="2.2" marker-end="url(#cpog-blue)"/>
<rect x="900.0" y="224" width="140" height="22" rx="6" fill="#FFFFFF" stroke="#0284C7" stroke-width="1.2"/>
<text x="970" y="239" font-family="Consolas, Monaco, monospace" font-size="10" font-weight="700" fill="#0284C7" text-anchor="middle">&#961; = ~(s1 &#8853; s0)</text>
<path d="M 300 345 C 300 380, 590 390, 590 425" fill="none" stroke="#475569" stroke-width="2.2" marker-end="url(#cpog-slate)"/>
<rect x="355.0" y="384" width="110" height="22" rx="6" fill="#FFFFFF" stroke="#475569" stroke-width="1.2"/>
<text x="410" y="399" font-family="Consolas, Monaco, monospace" font-size="10" font-weight="700" fill="#475569" text-anchor="middle">&#961; = 1 (Port 1)</text>
<path d="M 880 345 C 880 380, 590 390, 590 425" fill="none" stroke="#475569" stroke-width="2.2" marker-end="url(#cpog-slate)"/>
<rect x="715.0" y="384" width="110" height="22" rx="6" fill="#FFFFFF" stroke="#475569" stroke-width="1.2"/>
<text x="770" y="399" font-family="Consolas, Monaco, monospace" font-size="10" font-weight="700" fill="#475569" text-anchor="middle">&#961; = 1 (Port 2)</text>
<path d="M 590 495 C 590 530, 590 540, 590 575" fill="none" stroke="#7C3AED" stroke-width="2.2" marker-end="url(#cpog-purple)"/>
<rect x="460.0" y="534" width="260" height="22" rx="6" fill="#FFFFFF" stroke="#7C3AED" stroke-width="1.2"/>
<text x="590" y="549" font-family="Consolas, Monaco, monospace" font-size="10" font-weight="700" fill="#7C3AED" text-anchor="middle">&#961; = 1 (Weight: +1 if s1=0, -1 if s1=1)</text>
<path d="M 590 645 C 590 680, 590 690, 590 725" fill="none" stroke="#7C3AED" stroke-width="2.2" marker-end="url(#cpog-purple)"/>
<rect x="460.0" y="684" width="260" height="22" rx="6" fill="#FFFFFF" stroke="#7C3AED" stroke-width="1.2"/>
<text x="590" y="699" font-family="Consolas, Monaco, monospace" font-size="10" font-weight="700" fill="#7C3AED" text-anchor="middle">&#961; = 1 (Signed Total Tally)</text>
<g filter="url(#card-shadow)">
  <rect x="120.0" y="127.5" width="160" height="65" rx="10" fill="#EFF6FF" stroke="#3B82F6" stroke-width="2"/>
  <text x="200" y="149.5" font-family="-apple-system, BlinkMacSystemFont, Segoe UI, Roboto, sans-serif" font-size="12" font-weight="700" fill="#0F172A" text-anchor="middle">Input Literal: x1</text>
  <rect x="135.0" y="164.5" width="130" height="22" rx="5" fill="#DBEAFE"/>
  <text x="200" y="179.5" font-family="Consolas, Monaco, monospace" font-size="10" font-weight="600" fill="#1E40AF" text-anchor="middle">Primary Input %x1</text>
</g>
<g filter="url(#card-shadow)">
  <rect x="320.0" y="127.5" width="160" height="65" rx="10" fill="#F0FDFA" stroke="#14B8A6" stroke-width="2"/>
  <text x="400" y="149.5" font-family="-apple-system, BlinkMacSystemFont, Segoe UI, Roboto, sans-serif" font-size="12" font-weight="700" fill="#0F172A" text-anchor="middle">Input Literal: ~x1</text>
  <rect x="335.0" y="164.5" width="130" height="22" rx="5" fill="#CCFBF1"/>
  <text x="400" y="179.5" font-family="Consolas, Monaco, monospace" font-size="10" font-weight="600" fill="#115E59" text-anchor="middle">Inverted %not_x1</text>
</g>
<g filter="url(#card-shadow)">
  <rect x="700.0" y="127.5" width="160" height="65" rx="10" fill="#EFF6FF" stroke="#3B82F6" stroke-width="2"/>
  <text x="780" y="149.5" font-family="-apple-system, BlinkMacSystemFont, Segoe UI, Roboto, sans-serif" font-size="12" font-weight="700" fill="#0F172A" text-anchor="middle">Input Literal: x2</text>
  <rect x="715.0" y="164.5" width="130" height="22" rx="5" fill="#DBEAFE"/>
  <text x="780" y="179.5" font-family="Consolas, Monaco, monospace" font-size="10" font-weight="600" fill="#1E40AF" text-anchor="middle">Primary Input %x2</text>
</g>
<g filter="url(#card-shadow)">
  <rect x="900.0" y="127.5" width="160" height="65" rx="10" fill="#F0FDFA" stroke="#14B8A6" stroke-width="2"/>
  <text x="980" y="149.5" font-family="-apple-system, BlinkMacSystemFont, Segoe UI, Roboto, sans-serif" font-size="12" font-weight="700" fill="#0F172A" text-anchor="middle">Input Literal: ~x2</text>
  <rect x="915.0" y="164.5" width="130" height="22" rx="5" fill="#CCFBF1"/>
  <text x="980" y="179.5" font-family="Consolas, Monaco, monospace" font-size="10" font-weight="600" fill="#115E59" text-anchor="middle">Inverted %not_x2</text>
</g>
<g filter="url(#card-shadow)">
  <rect x="180.0" y="270.0" width="240" height="80" rx="10" fill="#FFFBEB" stroke="#F59E0B" stroke-width="2"/>
  <text x="300" y="292.0" font-family="-apple-system, BlinkMacSystemFont, Segoe UI, Roboto, sans-serif" font-size="12" font-weight="700" fill="#0F172A" text-anchor="middle">Literal Selector MUX 1</text>
  <rect x="195.0" y="322.0" width="210" height="22" rx="5" fill="#FEF3C7"/>
  <text x="300" y="337.0" font-family="Consolas, Monaco, monospace" font-size="10" font-weight="600" fill="#92400E" text-anchor="middle">Selects x1 or ~x1 [&#966;=1]</text>
</g>
<g filter="url(#card-shadow)">
  <rect x="760.0" y="270.0" width="240" height="80" rx="10" fill="#FFFBEB" stroke="#F59E0B" stroke-width="2"/>
  <text x="880" y="292.0" font-family="-apple-system, BlinkMacSystemFont, Segoe UI, Roboto, sans-serif" font-size="12" font-weight="700" fill="#0F172A" text-anchor="middle">Literal Selector MUX 2</text>
  <rect x="775.0" y="322.0" width="210" height="22" rx="5" fill="#FEF3C7"/>
  <text x="880" y="337.0" font-family="Consolas, Monaco, monospace" font-size="10" font-weight="600" fill="#92400E" text-anchor="middle">Selects x2 or ~x2 [&#966;=1]</text>
</g>
<g filter="url(#card-shadow)">
  <rect x="420.0" y="417.5" width="340" height="85" rx="10" fill="#F0FDF4" stroke="#22C55E" stroke-width="2"/>
  <text x="590" y="439.5" font-family="-apple-system, BlinkMacSystemFont, Segoe UI, Roboto, sans-serif" font-size="12" font-weight="700" fill="#0F172A" text-anchor="middle">Shared 2-Input AND Core</text>
  <rect x="435.0" y="474.5" width="310" height="22" rx="5" fill="#DCFCE7"/>
  <text x="590" y="489.5" font-family="Consolas, Monaco, monospace" font-size="10" font-weight="600" fill="#166534" text-anchor="middle">100% Duty Cycle [&#966;=1] (Reused for all 4 Clauses)</text>
</g>
<g filter="url(#card-shadow)">
  <rect x="420.0" y="567.5" width="340" height="85" rx="10" fill="#FAF5FF" stroke="#A855F7" stroke-width="2"/>
  <text x="590" y="589.5" font-family="-apple-system, BlinkMacSystemFont, Segoe UI, Roboto, sans-serif" font-size="12" font-weight="700" fill="#0F172A" text-anchor="middle">Signed Voting Accumulator</text>
  <rect x="435.0" y="624.5" width="310" height="22" rx="5" fill="#F3E8FF"/>
  <text x="590" y="639.5" font-family="Consolas, Monaco, monospace" font-size="10" font-weight="600" fill="#6B21A8" text-anchor="middle">+1 (s1=0) / -1 (s1=1) [&#966;=1]</text>
</g>
<g filter="url(#card-shadow)">
  <rect x="420.0" y="717.5" width="340" height="85" rx="10" fill="#F5F3FF" stroke="#8B5CF6" stroke-width="2"/>
  <text x="590" y="739.5" font-family="-apple-system, BlinkMacSystemFont, Segoe UI, Roboto, sans-serif" font-size="12" font-weight="700" fill="#0F172A" text-anchor="middle">Threshold Decision Comparator</text>
  <rect x="435.0" y="774.5" width="310" height="22" rx="5" fill="#EDE9FE"/>
  <text x="590" y="789.5" font-family="Consolas, Monaco, monospace" font-size="10" font-weight="600" fill="#5B21B6" text-anchor="middle">Sign Check: (vote_sum &gt;= 0) ? 1 : 0</text>
</g>
<rect x="30" y="845" width="1120" height="60" rx="10" fill="#FFFFFF" stroke="#E2E8F0" stroke-width="1.5"/>
<text x="50" y="872" font-family="-apple-system, BlinkMacSystemFont, Segoe UI, Roboto, sans-serif" font-size="11" font-weight="700" fill="#475569">CONTROL CODEBOOK S = (s1, s0):</text>
<text x="280" y="872" font-family="Consolas, Monaco, monospace" font-size="11" font-weight="600" fill="#0284C7">00: C1+ (x1 &amp; ~x2) [+1 Vote]</text>
<text x="500" y="872" font-family="Consolas, Monaco, monospace" font-size="11" font-weight="600" fill="#0284C7">01: C2+ (~x1 &amp; x2) [+1 Vote]</text>
<text x="720" y="872" font-family="Consolas, Monaco, monospace" font-size="11" font-weight="600" fill="#0284C7">10: C1- (x1 &amp; x2) [-1 Vote]</text>
<text x="940" y="872" font-family="Consolas, Monaco, monospace" font-size="11" font-weight="600" fill="#0284C7">11: C2- (~x1 &amp; ~x2) [-1 Vote]</text>
</svg>