<?xml version="1.0" encoding="UTF-8"?>
<svg xmlns="http://www.w3.org/2000/svg" viewBox="0 0 1360 1320" width="100%" height="100%">
<defs>
  <marker id="arrow-slate" viewBox="0 0 10 10" refX="7" refY="5" markerWidth="6" markerHeight="6" orient="auto">
    <path d="M 0 1.5 L 8 5 L 0 8.5 z" fill="#475569"/>
  </marker>
  <marker id="arrow-blue" viewBox="0 0 10 10" refX="7" refY="5" markerWidth="6" markerHeight="6" orient="auto">
    <path d="M 0 1.5 L 8 5 L 0 8.5 z" fill="#0284C7"/>
  </marker>
  <marker id="arrow-teal" viewBox="0 0 10 10" refX="7" refY="5" markerWidth="6" markerHeight="6" orient="auto">
    <path d="M 0 1.5 L 8 5 L 0 8.5 z" fill="#0D9488"/>
  </marker>
  <marker id="arrow-green" viewBox="0 0 10 10" refX="7" refY="5" markerWidth="6" markerHeight="6" orient="auto">
    <path d="M 0 1.5 L 8 5 L 0 8.5 z" fill="#16A34A"/>
  </marker>
  <marker id="arrow-rose" viewBox="0 0 10 10" refX="7" refY="5" markerWidth="6" markerHeight="6" orient="auto">
    <path d="M 0 1.5 L 8 5 L 0 8.5 z" fill="#E11D48"/>
  </marker>
  <marker id="arrow-amber" viewBox="0 0 10 10" refX="7" refY="5" markerWidth="6" markerHeight="6" orient="auto">
    <path d="M 0 1.5 L 8 5 L 0 8.5 z" fill="#D97706"/>
  </marker>
  <marker id="arrow-purple" viewBox="0 0 10 10" refX="7" refY="5" markerWidth="6" markerHeight="6" orient="auto">
    <path d="M 0 1.5 L 8 5 L 0 8.5 z" fill="#7C3AED"/>
  </marker>
  <filter id="card-shadow" x="-8%" y="-8%" width="120%" height="120%">
    <feGaussianBlur in="SourceAlpha" stdDeviation="3"/>
    <feOffset dx="0" dy="2" result="offsetblur"/>
    <feFlood flood-color="#0F172A" flood-opacity="0.08"/>
    <feComposite in2="offsetblur" operator="in"/>
    <feMerge>
      <feMergeNode/>
      <feMergeNode in="SourceGraphic"/>
    </feMerge>
  </filter>
</defs>
<rect width="1360" height="1320" fill="#F8FAFC" rx="16"/>
<rect x="35" y="20" width="1290" height="75" rx="12" fill="#0F172A"/>
<text x="680" y="48" font-family="-apple-system, BlinkMacSystemFont, Segoe UI, Roboto, sans-serif" font-size="20" font-weight="700" fill="#F8FAFC" text-anchor="middle">MLIR SSA IR Dataflow Graph (Tsetlin Machine XOR Benchmark)</text>
<text x="680" y="72" font-family="-apple-system, BlinkMacSystemFont, Segoe UI, Roboto, sans-serif" font-size="12" fill="#94A3B8" text-anchor="middle">Multi-Level Intermediate Representation (MLIR) Static Single Assignment (SSA) Def-Use Dataflow Graph</text>
<rect x="35" y="110" width="1290" height="160" rx="12" fill="#F8FAFC" stroke="#CBD5E1" stroke-width="1.5"/>
<rect x="35" y="110" width="6" height="160" rx="3" fill="#0284C7"/>
<text x="55" y="138" font-family="-apple-system, BlinkMacSystemFont, Segoe UI, Roboto, sans-serif" font-size="12" font-weight="700" fill="#334155" letter-spacing="0.5">STAGE 0: PRIMARY INPUTS &amp; LITERAL INVERSION (arith.xori)</text>
<rect x="35" y="390" width="1290" height="180" rx="12" fill="#F8FAFC" stroke="#CBD5E1" stroke-width="1.5"/>
<rect x="35" y="390" width="6" height="180" rx="3" fill="#16A34A"/>
<text x="55" y="418" font-family="-apple-system, BlinkMacSystemFont, Segoe UI, Roboto, sans-serif" font-size="12" font-weight="700" fill="#334155" letter-spacing="0.5">STAGE 1: CLAUSE CONJUNCTION TREES (arith.andi)</text>
<rect x="35" y="600" width="1290" height="180" rx="12" fill="#F8FAFC" stroke="#CBD5E1" stroke-width="1.5"/>
<rect x="35" y="600" width="6" height="180" rx="3" fill="#D97706"/>
<text x="55" y="628" font-family="-apple-system, BlinkMacSystemFont, Segoe UI, Roboto, sans-serif" font-size="12" font-weight="700" fill="#334155" letter-spacing="0.5">STAGE 2: VOTING ACCUMULATION TREES (arith.extui &amp; arith.addi)</text>
<rect x="35" y="810" width="1290" height="360" rx="12" fill="#F8FAFC" stroke="#CBD5E1" stroke-width="1.5"/>
<rect x="35" y="810" width="6" height="360" rx="3" fill="#7C3AED"/>
<text x="55" y="838" font-family="-apple-system, BlinkMacSystemFont, Segoe UI, Roboto, sans-serif" font-size="12" font-weight="700" fill="#334155" letter-spacing="0.5">STAGE 3: SUBTRACTION &amp; THRESHOLD COMPARISON (arith.subi &amp; arith.cmpi)</text>
<path d="M 305 205 L 360 205" fill="none" stroke="#0D9488" stroke-width="2.0" marker-end="url(#arrow-teal)"/>
<path d="M 915 205 L 970 205" fill="none" stroke="#0D9488" stroke-width="2.0" marker-end="url(#arrow-teal)"/>
<path d="M 160 245 L 160 440" fill="none" stroke="#0284C7" stroke-width="2.0" marker-end="url(#arrow-blue)"/>
<path d="M 240 245 C 240 295, 770 295, 770 440" fill="none" stroke="#0284C7" stroke-width="2.0" marker-end="url(#arrow-blue)"/>
<path d="M 430 245 C 430 310, 450 330, 450 440" fill="none" stroke="#0D9488" stroke-width="2.0" marker-end="url(#arrow-teal)"/>
<path d="M 510 245 C 510 325, 1060 325, 1060 440" fill="none" stroke="#0D9488" stroke-width="2.0" marker-end="url(#arrow-teal)"/>
<path d="M 770 245 C 770 345, 530 345, 530 440" fill="none" stroke="#0284C7" stroke-width="2.0" marker-end="url(#arrow-blue)"/>
<path d="M 850 245 C 850 310, 850 330, 850 440" fill="none" stroke="#0284C7" stroke-width="2.0" marker-end="url(#arrow-blue)"/>
<path d="M 1040 245 C 1040 365, 240 365, 240 440" fill="none" stroke="#0D9488" stroke-width="2.0" marker-end="url(#arrow-teal)"/>
<path d="M 1120 245 C 1120 310, 1140 330, 1140 440" fill="none" stroke="#0D9488" stroke-width="2.0" marker-end="url(#arrow-teal)"/>
<path d="M 200 540 C 200 595, 270 610, 270 650" fill="none" stroke="#16A34A" stroke-width="2.4" marker-end="url(#arrow-green)"/>
<path d="M 490 540 C 490 595, 420 610, 420 650" fill="none" stroke="#16A34A" stroke-width="2.4" marker-end="url(#arrow-green)"/>
<path d="M 810 540 C 810 595, 880 610, 880 650" fill="none" stroke="#E11D48" stroke-width="2.4" marker-end="url(#arrow-rose)"/>
<path d="M 1100 540 C 1100 595, 1030 610, 1030 650" fill="none" stroke="#E11D48" stroke-width="2.4" marker-end="url(#arrow-rose)"/>
<path d="M 345 750 C 345 810, 540 825, 540 867" fill="none" stroke="#D97706" stroke-width="2.4" marker-end="url(#arrow-amber)"/>
<path d="M 955 750 C 955 810, 760 825, 760 867" fill="none" stroke="#D97706" stroke-width="2.4" marker-end="url(#arrow-amber)"/>
<path d="M 650 962 L 650 997" fill="none" stroke="#7C3AED" stroke-width="2.6" marker-end="url(#arrow-purple)"/>
<path d="M 650 1092 L 650 1130" fill="none" stroke="#7C3AED" stroke-width="2.6" marker-end="url(#arrow-purple)"/>
<g filter="url(#card-shadow)">
  <rect x="95.0" y="165.0" width="210" height="80" rx="10" fill="#EFF6FF" stroke="#3B82F6" stroke-width="2"/>
  <text x="200" y="189.0" font-family="-apple-system, BlinkMacSystemFont, Segoe UI, Roboto, sans-serif" font-size="12" font-weight="700" fill="#0F172A" text-anchor="middle">Primary Input: x1</text>
  <text x="200" y="211.0" font-family="-apple-system, BlinkMacSystemFont, Segoe UI, Roboto, sans-serif" font-size="11" font-weight="500" fill="#475569" text-anchor="middle">Argument %x1 : i1</text>
  <rect x="109.0" y="215.0" width="182" height="22" rx="5" fill="#DBEAFE"/>
  <text x="200" y="230.0" font-family="Consolas, Monaco, monospace" font-size="10" font-weight="600" fill="#1E40AF" text-anchor="middle">input.arg</text>
</g>
<g filter="url(#card-shadow)">
  <rect x="365.0" y="165.0" width="210" height="80" rx="10" fill="#F0FDFA" stroke="#14B8A6" stroke-width="2"/>
  <text x="470" y="189.0" font-family="-apple-system, BlinkMacSystemFont, Segoe UI, Roboto, sans-serif" font-size="12" font-weight="700" fill="#0F172A" text-anchor="middle">Inverter: NOT x1</text>
  <text x="470" y="211.0" font-family="-apple-system, BlinkMacSystemFont, Segoe UI, Roboto, sans-serif" font-size="11" font-weight="500" fill="#475569" text-anchor="middle">arith.xori %x1, 1</text>
  <rect x="379.0" y="215.0" width="182" height="22" rx="5" fill="#CCFBF1"/>
  <text x="470" y="230.0" font-family="Consolas, Monaco, monospace" font-size="10" font-weight="600" fill="#115E59" text-anchor="middle">%not_x1 : i1</text>
</g>
<g filter="url(#card-shadow)">
  <rect x="705.0" y="165.0" width="210" height="80" rx="10" fill="#EFF6FF" stroke="#3B82F6" stroke-width="2"/>
  <text x="810" y="189.0" font-family="-apple-system, BlinkMacSystemFont, Segoe UI, Roboto, sans-serif" font-size="12" font-weight="700" fill="#0F172A" text-anchor="middle">Primary Input: x2</text>
  <text x="810" y="211.0" font-family="-apple-system, BlinkMacSystemFont, Segoe UI, Roboto, sans-serif" font-size="11" font-weight="500" fill="#475569" text-anchor="middle">Argument %x2 : i1</text>
  <rect x="719.0" y="215.0" width="182" height="22" rx="5" fill="#DBEAFE"/>
  <text x="810" y="230.0" font-family="Consolas, Monaco, monospace" font-size="10" font-weight="600" fill="#1E40AF" text-anchor="middle">input.arg</text>
</g>
<g filter="url(#card-shadow)">
  <rect x="975.0" y="165.0" width="210" height="80" rx="10" fill="#F0FDFA" stroke="#14B8A6" stroke-width="2"/>
  <text x="1080" y="189.0" font-family="-apple-system, BlinkMacSystemFont, Segoe UI, Roboto, sans-serif" font-size="12" font-weight="700" fill="#0F172A" text-anchor="middle">Inverter: NOT x2</text>
  <text x="1080" y="211.0" font-family="-apple-system, BlinkMacSystemFont, Segoe UI, Roboto, sans-serif" font-size="11" font-weight="500" fill="#475569" text-anchor="middle">arith.xori %x2, 1</text>
  <rect x="989.0" y="215.0" width="182" height="22" rx="5" fill="#CCFBF1"/>
  <text x="1080" y="230.0" font-family="Consolas, Monaco, monospace" font-size="10" font-weight="600" fill="#115E59" text-anchor="middle">%not_x2 : i1</text>
</g>
<g filter="url(#card-shadow)">
  <rect x="80.0" y="440.0" width="240" height="100" rx="10" fill="#F0FDF4" stroke="#22C55E" stroke-width="2"/>
  <text x="200" y="464.0" font-family="-apple-system, BlinkMacSystemFont, Segoe UI, Roboto, sans-serif" font-size="12" font-weight="700" fill="#0F172A" text-anchor="middle">Clause C1+ (Pos Vote +1)</text>
  <text x="200" y="486.0" font-family="-apple-system, BlinkMacSystemFont, Segoe UI, Roboto, sans-serif" font-size="11" font-weight="500" fill="#475569" text-anchor="middle">Formula: x1 &amp; ~x2</text>
  <rect x="94.0" y="510.0" width="212" height="22" rx="5" fill="#DCFCE7"/>
  <text x="200" y="525.0" font-family="Consolas, Monaco, monospace" font-size="10" font-weight="600" fill="#166534" text-anchor="middle">arith.andi %x1, %not_x2 : i1</text>
</g>
<g filter="url(#card-shadow)">
  <rect x="370.0" y="440.0" width="240" height="100" rx="10" fill="#F0FDF4" stroke="#22C55E" stroke-width="2"/>
  <text x="490" y="464.0" font-family="-apple-system, BlinkMacSystemFont, Segoe UI, Roboto, sans-serif" font-size="12" font-weight="700" fill="#0F172A" text-anchor="middle">Clause C2+ (Pos Vote +1)</text>
  <text x="490" y="486.0" font-family="-apple-system, BlinkMacSystemFont, Segoe UI, Roboto, sans-serif" font-size="11" font-weight="500" fill="#475569" text-anchor="middle">Formula: ~x1 &amp; x2</text>
  <rect x="384.0" y="510.0" width="212" height="22" rx="5" fill="#DCFCE7"/>
  <text x="490" y="525.0" font-family="Consolas, Monaco, monospace" font-size="10" font-weight="600" fill="#166534" text-anchor="middle">arith.andi %not_x1, %x2 : i1</text>
</g>
<g filter="url(#card-shadow)">
  <rect x="690.0" y="440.0" width="240" height="100" rx="10" fill="#FFF1F2" stroke="#F43F5E" stroke-width="2"/>
  <text x="810" y="464.0" font-family="-apple-system, BlinkMacSystemFont, Segoe UI, Roboto, sans-serif" font-size="12" font-weight="700" fill="#0F172A" text-anchor="middle">Clause C1- (Neg Vote -1)</text>
  <text x="810" y="486.0" font-family="-apple-system, BlinkMacSystemFont, Segoe UI, Roboto, sans-serif" font-size="11" font-weight="500" fill="#475569" text-anchor="middle">Formula: x1 &amp; x2</text>
  <rect x="704.0" y="510.0" width="212" height="22" rx="5" fill="#FFE4E6"/>
  <text x="810" y="525.0" font-family="Consolas, Monaco, monospace" font-size="10" font-weight="600" fill="#9F1239" text-anchor="middle">arith.andi %x1, %x2 : i1</text>
</g>
<g filter="url(#card-shadow)">
  <rect x="980.0" y="440.0" width="240" height="100" rx="10" fill="#FFF1F2" stroke="#F43F5E" stroke-width="2"/>
  <text x="1100" y="464.0" font-family="-apple-system, BlinkMacSystemFont, Segoe UI, Roboto, sans-serif" font-size="12" font-weight="700" fill="#0F172A" text-anchor="middle">Clause C2- (Neg Vote -1)</text>
  <text x="1100" y="486.0" font-family="-apple-system, BlinkMacSystemFont, Segoe UI, Roboto, sans-serif" font-size="11" font-weight="500" fill="#475569" text-anchor="middle">Formula: ~x1 &amp; ~x2</text>
  <rect x="994.0" y="510.0" width="212" height="22" rx="5" fill="#FFE4E6"/>
  <text x="1100" y="525.0" font-family="Consolas, Monaco, monospace" font-size="10" font-weight="600" fill="#9F1239" text-anchor="middle">arith.andi %not_x1, %not_x2 : i1</text>
</g>
<g filter="url(#card-shadow)">
  <rect x="160.0" y="650.0" width="370" height="100" rx="10" fill="#FFFBEB" stroke="#F59E0B" stroke-width="2"/>
  <text x="345" y="674.0" font-family="-apple-system, BlinkMacSystemFont, Segoe UI, Roboto, sans-serif" font-size="12" font-weight="700" fill="#0F172A" text-anchor="middle">Positive Vote Accumulator (+Votes)</text>
  <text x="345" y="696.0" font-family="-apple-system, BlinkMacSystemFont, Segoe UI, Roboto, sans-serif" font-size="11" font-weight="500" fill="#475569" text-anchor="middle">arith.addi %c1_pos_ext, %c2_pos_ext</text>
  <rect x="174.0" y="720.0" width="342" height="22" rx="5" fill="#FEF3C7"/>
  <text x="345" y="735.0" font-family="Consolas, Monaco, monospace" font-size="10" font-weight="600" fill="#92400E" text-anchor="middle">%pos_votes : i32 (Zero-Extended)</text>
</g>
<g filter="url(#card-shadow)">
  <rect x="770.0" y="650.0" width="370" height="100" rx="10" fill="#FFFBEB" stroke="#F59E0B" stroke-width="2"/>
  <text x="955" y="674.0" font-family="-apple-system, BlinkMacSystemFont, Segoe UI, Roboto, sans-serif" font-size="12" font-weight="700" fill="#0F172A" text-anchor="middle">Negative Vote Accumulator (-Votes)</text>
  <text x="955" y="696.0" font-family="-apple-system, BlinkMacSystemFont, Segoe UI, Roboto, sans-serif" font-size="11" font-weight="500" fill="#475569" text-anchor="middle">arith.addi %c1_neg_ext, %c2_neg_ext</text>
  <rect x="784.0" y="720.0" width="342" height="22" rx="5" fill="#FEF3C7"/>
  <text x="955" y="735.0" font-family="Consolas, Monaco, monospace" font-size="10" font-weight="600" fill="#92400E" text-anchor="middle">%neg_votes : i32 (Zero-Extended)</text>
</g>
<g filter="url(#card-shadow)">
  <rect x="455.0" y="867.5" width="390" height="95" rx="10" fill="#FAF5FF" stroke="#A855F7" stroke-width="2"/>
  <text x="650" y="891.5" font-family="-apple-system, BlinkMacSystemFont, Segoe UI, Roboto, sans-serif" font-size="12" font-weight="700" fill="#0F172A" text-anchor="middle">Vote Difference Subtractor</text>
  <text x="650" y="913.5" font-family="-apple-system, BlinkMacSystemFont, Segoe UI, Roboto, sans-serif" font-size="11" font-weight="500" fill="#475569" text-anchor="middle">arith.subi %pos_votes, %neg_votes</text>
  <rect x="469.0" y="932.5" width="362" height="22" rx="5" fill="#F3E8FF"/>
  <text x="650" y="947.5" font-family="Consolas, Monaco, monospace" font-size="10" font-weight="600" fill="#6B21A8" text-anchor="middle">%diff = (+Votes) - (-Votes) : i32</text>
</g>
<g filter="url(#card-shadow)">
  <rect x="455.0" y="997.5" width="390" height="95" rx="10" fill="#F5F3FF" stroke="#8B5CF6" stroke-width="2"/>
  <text x="650" y="1021.5" font-family="-apple-system, BlinkMacSystemFont, Segoe UI, Roboto, sans-serif" font-size="12" font-weight="700" fill="#0F172A" text-anchor="middle">Threshold Decision Comparator</text>
  <text x="650" y="1043.5" font-family="-apple-system, BlinkMacSystemFont, Segoe UI, Roboto, sans-serif" font-size="11" font-weight="500" fill="#475569" text-anchor="middle">arith.cmpi sge, %diff, 0</text>
  <rect x="469.0" y="1062.5" width="362" height="22" rx="5" fill="#EDE9FE"/>
  <text x="650" y="1077.5" font-family="Consolas, Monaco, monospace" font-size="10" font-weight="600" fill="#5B21B6" text-anchor="middle">Output: (%diff &gt;= 0) ? 1 : 0 (i1)</text>
</g>
<rect x="35" y="1195" width="1290" height="95" rx="10" fill="#FFFFFF" stroke="#E2E8F0" stroke-width="1.5"/>
<text x="55" y="1222" font-family="-apple-system, BlinkMacSystemFont, Segoe UI, Roboto, sans-serif" font-size="11" font-weight="700" fill="#475569">GRAPH LEGEND &amp; BUS LAYERS:</text>
<circle cx="210" cy="1218" r="6" fill="#3B82F6"/>
<text x="222" y="1222" font-family="-apple-system, BlinkMacSystemFont, Segoe UI, Roboto, sans-serif" font-size="11" fill="#334155">Primary Inputs (i1)</text>
<circle cx="380" cy="1218" r="6" fill="#14B8A6"/>
<text x="392" y="1222" font-family="-apple-system, BlinkMacSystemFont, Segoe UI, Roboto, sans-serif" font-size="11" fill="#334155">Inverters (xori)</text>
<circle cx="550" cy="1218" r="6" fill="#22C55E"/>
<text x="562" y="1222" font-family="-apple-system, BlinkMacSystemFont, Segoe UI, Roboto, sans-serif" font-size="11" fill="#334155">Pos Clauses (+1)</text>
<circle cx="720" cy="1218" r="6" fill="#F43F5E"/>
<text x="732" y="1222" font-family="-apple-system, BlinkMacSystemFont, Segoe UI, Roboto, sans-serif" font-size="11" fill="#334155">Neg Clauses (-1)</text>
<circle cx="890" cy="1218" r="6" fill="#F59E0B"/>
<text x="902" y="1222" font-family="-apple-system, BlinkMacSystemFont, Segoe UI, Roboto, sans-serif" font-size="11" fill="#334155">Vote Adders (addi)</text>
<circle cx="1070" cy="1218" r="6" fill="#8B5CF6"/>
<text x="1082" y="1222" font-family="-apple-system, BlinkMacSystemFont, Segoe UI, Roboto, sans-serif" font-size="11" fill="#334155">Comparator (cmpi)</text>
<text x="680" y="1255" font-family="-apple-system, BlinkMacSystemFont, Segoe UI, Roboto, sans-serif" font-size="11" fill="#64748B" text-anchor="middle">Dataflow: Top-to-Bottom SSA evaluation. Multi-level horizontal buses (y=295, y=325, y=365) and generous stage padding guarantee zero overlap.</text>
</svg>